<svg xmlns="http://www.w3.org/2000/svg" viewBox="0 0 300 300"><defs><style>.cls-1{fill:#5e656a;}</style></defs><title>icon</title><g id="Layer_1" data-name="Layer 1"><path class="cls-1" d="M253.36,50.39c-5.92,5.45-11.92,10.81-17.74,16.36-33.92,32.37-68,64.62-101.53,97.36-5.59,5.45-10.15,6.4-17.2,3.85-28.14-10.19-56.49-19.81-84.66-30-2.64-.95-4.49-4.1-6.7-6.23,2.12-2.18,3.84-5.34,6.42-6.39q66.15-27,132.52-53.55C200,57.59,235.66,43.55,271.27,29.43c1.24-.49,2.55-.8,5.62-1.75-2.37,6.85-4.12,12.6-6.31,18.18Q257.41,79.21,244,112.46c-8.37,20.73-17,41.36-25.38,62.07-13.38,32.95-26.6,66-40.12,98.86-.87,2.11-4.07,5-5.55,4.68-2.27-.5-4.93-3.14-5.79-5.48-8.22-22.45-16.08-45-24.08-67.57-2.28-6.42-4.35-12.93-7.09-19.15-2.45-5.53-1.77-9.57,2.58-14.05Q192.9,115.93,246.83,59.68c2.54-2.64,4.94-5.41,7.41-8.12Z"/><path class="cls-1" d="M19.82,252.63c.94-1.85,1.49-4.09,2.88-5.5,12.57-12.73,25.29-25.33,38-37.94,5.24-5.21,10.41-10.5,15.87-15.48,1.29-1.19,3.6-1.27,5.44-1.86-.56,1.74-.63,4-1.78,5.13Q54,223.47,27.45,249.67A57.3,57.3,0,0,1,22,253.9Z"/><path class="cls-1" d="M63.75,271.85c2.24-2.58,4.32-5.32,6.74-7.73q25-24.85,50.14-49.58a9.87,9.87,0,0,1,2.58-2.29c.91-.37,2.55-.43,3.07.13a3.19,3.19,0,0,1,0,3.06,53.5,53.5,0,0,1-5.66,6.64Q96,246.41,71.24,270.6c-1.6,1.57-3.89,2.43-5.86,3.62Z"/><path class="cls-1" d="M63.75,239.43l60.67-60.34,2.41,1.68c-.8,1.78-1.16,4-2.44,5.28q-27,27.09-54.21,53.88c-1.18,1.16-3.29,1.36-5,2Z"/></g></svg>