<?xml version="1.0" encoding="UTF-8" standalone="no"?>
<svg
   xmlns:dc="http://purl.org/dc/elements/1.1/"
   xmlns:cc="http://creativecommons.org/ns#"
   xmlns:rdf="http://www.w3.org/1999/02/22-rdf-syntax-ns#"
   xmlns:svg="http://www.w3.org/2000/svg"
   xmlns="http://www.w3.org/2000/svg"
   id="svg11"
   version="1.1"
   viewBox="0 0 300 300">
  <defs
     id="defs4">
    <style
       id="style2">.cls-1{fill:#5e656a;}</style>
  </defs>
  <title
     id="title6">icon</title>
  <g
     data-name="Layer 1"
     id="Layer_1">
    <path
       style="fill:#fcbf08;fill-opacity:1"
       id="path8"
       d="M166.31,277.69c3.9-2.25,8-4.24,11.66-6.79a74.44,74.44,0,0,0,32.58-68c-1.39-17.1-7.13-32.34-20.87-43.59A61.55,61.55,0,0,0,169,148c-6.18-1.94-12.42-4-18.79-4.92a250,250,0,0,0-25.84-1.67c-6.48-.22-6.5,0-6.51,6.51q0,20,0,39.94c0,.62-.08,1.25-.16,2.42-1.65-1.45-3-2.56-4.26-3.76L61,136.27Q47.66,123.49,34.3,110.75c-1.48-1.39-1.24-2.31.08-3.59C45.14,96.83,55.83,86.44,66.57,76.09q24.5-23.6,49-47.16c.55-.53,1.21-.95,2.3-1.79,0,4.65,0,8.69,0,12.74,0,8.74,0,17.48-.08,26.22,0,2.1.71,2.72,2.83,2.87,10.73.78,21.49,1.41,32.15,2.82,6.72.89,13.26,3.06,19.88,4.67A107.42,107.42,0,0,1,198.81,87a91.21,91.21,0,0,1,32.33,28.83,87.94,87.94,0,0,1,10.8,22.79,109.83,109.83,0,0,1,4.69,43.46,106.35,106.35,0,0,1-21.74,56.58,112.48,112.48,0,0,1-27.35,25.61,102.62,102.62,0,0,1-22.87,11.33c-1.76.61-3.48,1.37-5.26,1.94a22.68,22.68,0,0,1-3.09.54Z"
       class="cls-1" />
  </g>
  <metadata
     id="metadata846">
    <rdf:RDF>
      <cc:Work
         rdf:about="">
        <dc:title>icon</dc:title>
      </cc:Work>
    </rdf:RDF>
  </metadata>
</svg>
