<?xml version="1.0" encoding="UTF-8" standalone="no"?>
<svg
   xmlns:svg="http://www.w3.org/2000/svg"
   xmlns="http://www.w3.org/2000/svg"
   id="svg6"
   version="1.1"
   viewBox="0 0 141.91321 171.63469"
   height="171.63469mm"
   width="141.91321mm">
  <defs
     id="defs2">
    <rect
       id="rect1179"
       height="35.159065"
       width="104.9722"
       y="102.86935"
       x="107.63716" />
    <rect
       id="rect1173"
       height="31.840239"
       width="63.348129"
       y="104.56413"
       x="119.42317" />
    <filter
       height="1.0076507"
       y="-0.0038253509"
       width="1.0485415"
       x="-0.024270741"
       id="filter1082"
       style="color-interpolation-filters:sRGB">
      <feGaussianBlur
         id="feGaussianBlur1084"
         stdDeviation="0.19196186" />
    </filter>
    <filter
       height="1.0076998"
       y="-0.0038499604"
       width="1.0278934"
       x="-0.013946676"
       id="filter1086"
       style="color-interpolation-filters:sRGB">
      <feGaussianBlur
         id="feGaussianBlur1088"
         stdDeviation="0.19196186" />
    </filter>
    <filter
       height="1.0076507"
       y="-0.0038253509"
       width="1.0573854"
       x="-0.028692707"
       id="filter1090"
       style="color-interpolation-filters:sRGB">
      <feGaussianBlur
         id="feGaussianBlur1092"
         stdDeviation="0.19196186" />
    </filter>
    <filter
       height="1.0077254"
       y="-0.0038627004"
       width="1.0385818"
       x="-0.01929092"
       id="filter1094"
       style="color-interpolation-filters:sRGB">
      <feGaussianBlur
         id="feGaussianBlur1096"
         stdDeviation="0.19196186" />
    </filter>
    <filter
       height="1.0076389"
       y="-0.0038194484"
       width="1.0582879"
       x="-0.029143883"
       id="filter1098"
       style="color-interpolation-filters:sRGB">
      <feGaussianBlur
         id="feGaussianBlur1100"
         stdDeviation="0.19196186" />
    </filter>
    <filter
       style="color-interpolation-filters:sRGB"
       id="filter903"
       x="-0.082619108"
       width="1.1652381"
       y="-0.032439377"
       height="1.0648788">
      <feGaussianBlur
         stdDeviation="0.094206751"
         id="feGaussianBlur905" />
    </filter>
    <filter
       height="2.3614323"
       y="-0.68071616"
       width="1.1880319"
       x="-0.094015934"
       id="filter1369"
       style="color-interpolation-filters:sRGB">
      <feGaussianBlur
         id="feGaussianBlur1371"
         stdDeviation="3.0426829" />
    </filter>
  </defs>
  <g
     transform="translate(-21.257017,-17.935329)"
     style="opacity:1"
     id="layer1">
    <text
       transform="translate(3.7403817,7.4158795)"
       style="font-style:normal;font-weight:normal;font-size:10.5833px;line-height:1.25;font-family:sans-serif;white-space:pre;shape-inside:url(#rect1173);fill:#000000;fill-opacity:1;stroke:none;"
       id="text1171"
       xml:space="preserve"><tspan
         style="visibility:hidden"
         x="119.42383"
         y="151.3863"><tspan
           dx="0 10.748676 10.748676 9.3265438 9.3265438 10.41795 8.830452 8.830452"
           style="font-style:normal;font-variant:normal;font-weight:normal;font-stretch:normal;font-size:16.9333px;font-family:sans-serif;-inkscape-font-specification:'sans-serif, Normal';font-variant-ligatures:normal;font-variant-caps:normal;font-variant-numeric:normal;font-variant-east-asian:normal">Success!</tspan></tspan></text>
    <ellipse
       ry="5.3637915"
       rx="38.836178"
       cy="166.90379"
       cx="83.768776"
       id="path1303"
       style="font-variation-settings:normal;opacity:0.456013;vector-effect:none;fill:#000000;fill-opacity:1;stroke:none;stroke-width:1;stroke-linecap:round;stroke-linejoin:miter;stroke-miterlimit:4;stroke-dasharray:none;stroke-dashoffset:0;stroke-opacity:0.976737;filter:url(#filter1369);stop-color:#000000;stop-opacity:1" />
  </g>
  <g
     transform="translate(-21.257017,-17.935329)"
     id="layer2">
    <path
       style="fill:#6f8f5a;fill-opacity:1;stroke:#000000;stroke-width:1;stroke-linecap:butt;stroke-linejoin:miter;stroke-miterlimit:4;stroke-dasharray:none;stroke-opacity:1"
       d="m 66.015671,143.28897 c 0,0 -7.407873,0.93749 -9.88545,6.26045 -2.477577,5.32297 -1.269955,9.93785 -1.269955,9.93785 0,0 -4.444447,-0.61004 -4.500253,1.94189 -0.05581,2.55192 2.24458,3.27658 6.320131,3.6397 4.075549,0.36311 4.250751,-1.50752 4.366668,-2.15612 0.115919,-0.6486 -0.260857,-6.85746 2.063509,-9.49613 1.906161,-2.16392 6.214914,-3.421 8.700029,-2.64327 2.485112,0.77774 -5.794679,-7.48437 -5.794679,-7.48437 z"
       id="path941" />
    <path
       id="path939"
       d="m 85.386468,147.74473 c 0,0 11.811199,10.93709 18.823172,9.63986 7.01197,-1.29723 10.7266,-5.12802 10.7266,-5.12802 0,0 2.52829,3.96186 5.09229,2.42707 2.564,-1.53481 1.65992,-3.83856 -0.8527,-7.35008 -2.51263,-3.51149 -4.48674,-2.49474 -5.21009,-2.1867 -0.72337,0.30804 -6.60041,4.45558 -10.8488,4.21462 -3.484003,-0.19762 -7.763856,-2.89419 -8.745591,-5.37977 -0.98172,-2.48558 -8.984881,3.76302 -8.984881,3.76302 z"
       style="fill:#6f8f5a;fill-opacity:1;stroke:#000000;stroke-width:1.11088;stroke-linecap:butt;stroke-linejoin:miter;stroke-miterlimit:4;stroke-dasharray:none;stroke-opacity:1" />
    <path
       style="fill:#6f8f5a;fill-opacity:1;stroke:#000000;stroke-width:1;stroke-linecap:butt;stroke-linejoin:miter;stroke-miterlimit:4;stroke-dasharray:none;stroke-opacity:1"
       d="m 51.636689,85.222997 c 0,0 3.051852,2.896103 6.442133,3.450259 3.390281,0.554154 7.474037,0.268402 7.474037,0.268402 l 0.206293,4.926803 c 0,0 -4.946086,0.513435 -8.709147,-0.402397 -3.763063,-0.915831 -8.917656,-4.132905 -8.917656,-4.132905 z"
       id="path927" />
    <path
       style="fill:#6f8f5a;fill-opacity:1;stroke:#000000;stroke-width:1;stroke-linecap:butt;stroke-linejoin:miter;stroke-miterlimit:4;stroke-dasharray:none;stroke-opacity:1"
       d="m 51.636689,85.222997 c 0,0 3.051852,2.896103 6.442133,3.450259 3.390281,0.554154 7.474037,0.268402 7.474037,0.268402 l 0.206293,4.926803 c 0,0 -4.946086,0.513435 -8.709147,-0.402397 -3.763063,-0.915831 -8.917656,-4.132905 -8.917656,-4.132905 z"
       id="path929" />
    <path
       id="path913"
       d="m 110.79239,86.631524 c 0,0 4.79358,0.223379 8.37204,-1.60771 3.57844,-1.831084 7.26363,-4.780986 7.26363,-4.780986 l 3.42709,3.708887 c 0,0 -4.3536,3.70346 -8.52278,5.501073 -4.16918,1.797621 -11.1673,2.727679 -11.1673,2.727679 z"
       style="fill:#6f8f5a;fill-opacity:1;stroke:#000000;stroke-width:1.08551;stroke-linecap:butt;stroke-linejoin:miter;stroke-miterlimit:4;stroke-dasharray:none;stroke-opacity:1" />
    <path
       id="path836"
       d="m 82.493756,33.489569 c 0,0 -11.255399,4.101505 -14.825628,8.601589 -3.570227,4.500083 -5.067289,15.646335 -5.022527,20.100244 0.04476,4.453911 2.948528,30.408866 2.353618,47.564548 -0.664133,19.15187 -10.299732,36.0306 8.395564,44.25872 18.695294,8.22811 38.451837,-22.18441 39.495857,-64.582779 1.04402,-42.398368 -23.157571,-54.777796 -23.157571,-54.777796 0,0 -0.115301,-5.852403 -2.934354,-6.202934 -2.819056,-0.35053 -4.304959,5.038408 -4.304959,5.038408 z"
       style="fill:#6f8f5a;fill-opacity:1;stroke:#000000;stroke-width:1;stroke-linecap:round;stroke-linejoin:round;stroke-miterlimit:4;stroke-dasharray:none;stroke-opacity:1" />
    <path
       id="path915"
       d="m 42.575477,89.467867 c 0,0 5.121039,3.466168 8.916794,-1.421197 3.795752,-4.887362 1.478677,-10.472539 -1.152504,-10.897224 -2.631178,-0.424683 -7.76429,12.318421 -7.76429,12.318421 z"
       style="fill:#f1f0f2;fill-opacity:1;stroke:#000000;stroke-width:1;stroke-linecap:butt;stroke-linejoin:miter;stroke-miterlimit:4;stroke-dasharray:none;stroke-opacity:1" />
    <path
       id="path919"
       d="m 32.708284,72.004049 c 0,0 2.356077,-6.234901 2.320792,-8.971434 -0.03528,-2.736532 -4.627314,-8.308422 -0.912736,-9.752274 3.714581,-1.443852 7.590788,0.158086 9.15692,2.711326 1.566129,2.553237 1.783662,6.267495 1.046353,7.587951 -0.737307,1.320453 -11.611329,8.424431 -11.611329,8.424431 z"
       style="fill:#f1f0f2;fill-opacity:1;stroke:#000000;stroke-width:1;stroke-linecap:butt;stroke-linejoin:miter;stroke-miterlimit:4;stroke-dasharray:none;stroke-opacity:1" />
    <path
       id="path917"
       d="m 46.747681,87.160184 c 0,0 -0.47175,2.922537 -5.749671,2.268021 -5.277922,-0.654516 -7.358965,-4.318122 -8.800989,-9.066223 -1.442021,-4.748099 0.553233,-17.004329 8.781235,-17.878433 8.227999,-0.874104 11.77335,5.549054 11.991353,7.827471 0.218006,2.278417 -0.812787,4.784971 -1.88741,5.049512 -1.074627,0.264541 -4.148339,2.919791 -5.020879,4.93088 -0.872543,2.011093 0.686361,6.868772 0.686361,6.868772 z"
       style="fill:#f1f0f2;fill-opacity:1;stroke:#000000;stroke-width:1;stroke-linecap:butt;stroke-linejoin:miter;stroke-miterlimit:4;stroke-dasharray:none;stroke-opacity:1" />
    <path
       id="path921"
       d="m 41.927499,70.112929 c 0,0 7.711093,0.165909 9.293098,5.155959 1.582002,4.990047 -2.25843,6.380361 -2.707704,6.564072"
       style="fill:#f1f0f2;fill-opacity:1;stroke:#000000;stroke-width:1;stroke-linecap:butt;stroke-linejoin:miter;stroke-miterlimit:4;stroke-dasharray:none;stroke-opacity:1" />
    <path
       id="path923"
       d="m 39.823778,76.76764 c 0,0 7.488587,-0.275191 8.689115,5.024287 1.200526,5.299474 -3.193891,5.941781 -4.081928,6.006694 -0.888039,0.06491 -3.079358,-1.111342 -3.486054,-2.007965"
       style="fill:#f1f0f2;fill-opacity:1;stroke:#000000;stroke-width:1;stroke-linecap:butt;stroke-linejoin:miter;stroke-miterlimit:4;stroke-dasharray:none;stroke-opacity:1" />
    <path
       id="path925"
       d="m 38.4913,85.326201 c 0,0 1.648576,0.692197 2.439488,0.450802 0.612216,-0.186855 1.371634,-1.343922 1.371634,-1.343922"
       style="fill:none;stroke:#000000;stroke-width:1;stroke-linecap:round;stroke-linejoin:miter;stroke-miterlimit:4;stroke-dasharray:none;stroke-opacity:1" />
    <path
       id="path931"
       d="m 126.39353,82.039081 c 3.30545,4.030466 9.42345,4.490122 11.16638,1.95037 1.74293,-2.539748 -3.92288,-11.049563 -8.39488,-10.862386 -4.472,0.187177 -5.04093,4.969412 -2.7715,8.912016 z"
       style="fill:#f0f1f1;fill-opacity:1;stroke:#000000;stroke-width:1;stroke-linecap:round;stroke-linejoin:miter;stroke-miterlimit:4;stroke-dasharray:none;stroke-opacity:1" />
    <path
       id="path933"
       d="m 130.34117,76.849186 c 0,0 -2.13649,-3.728871 -1.23258,-6.202714 0.90391,-2.473844 1.95786,-3.520877 2.11447,-4.661152 0.1566,-1.140272 -0.68513,-7.694779 3.72472,-7.175246 4.40985,0.519534 4.19764,5.836682 3.74959,7.363616 -0.44805,1.526935 -2.5727,3.87226 -2.5727,3.87226 0,0 5.21478,-3.807746 10.34929,-1.817688 5.13452,1.990058 5.02831,4.220818 5.03558,4.696764 0.0316,2.072509 -2.83199,4.842142 -2.83199,4.842142 0,0 -0.68606,2.457376 -0.67201,4.24061 0.014,1.783233 -1.7025,3.340004 -4.18837,3.538701 -3.27938,0.262122 -7.95628,-1.812999 -10.69026,-4.467759"
       style="fill:#f0f1f1;fill-opacity:1;stroke:#000000;stroke-width:1;stroke-linecap:round;stroke-linejoin:miter;stroke-miterlimit:4;stroke-dasharray:none;stroke-opacity:1" />
    <path
       id="path937"
       d="m 142.27468,78.412757 c 0,0 2.23128,0.0055 3.35569,0.63168 1.12441,0.626141 2.45566,3.182461 3.60826,3.235137 1.1526,0.05267 2.50568,-0.786427 3.02409,-1.708293 0.5184,-0.921867 0.75618,-3.096062 -0.63103,-4.388723 -1.38721,-1.292664 -6.14867,-2.986426 -7.82938,-2.443351"
       style="fill:#f0f1f1;fill-opacity:1;stroke:#000000;stroke-width:1;stroke-linecap:round;stroke-linejoin:miter;stroke-miterlimit:4;stroke-dasharray:none;stroke-opacity:1" />
    <path
       id="path935"
       d="m 143.67233,71.504354 c 0,0 0.26021,2.598841 -0.24613,4.382497 -0.50633,1.783657 -2.31298,4.559808 -2.31298,4.559808"
       style="fill:none;stroke:#000000;stroke-width:1;stroke-linecap:round;stroke-linejoin:miter;stroke-miterlimit:4;stroke-dasharray:none;stroke-opacity:1" />
  </g>
  <g
     transform="translate(-21.257017,-17.935329)"
     style="opacity:0.30326"
     id="layer3">
    <path
       id="path950"
       d="m 82.493754,33.489569 c 1.470641,4.318447 -5.875196,6.23489 -8.745797,8.636474 -4.869934,2.96085 -5.435207,9.285306 -5.523794,14.415774 -1.019291,9.003749 -0.52376,18.096479 -0.648447,27.13609 0.415058,4.807221 -0.263053,9.667374 1.075705,14.380604 0.12325,4.831159 1.243329,9.647529 0.540834,14.507329 -0.458833,5.48514 -1.914826,10.77982 -2.835483,16.1728 -2.609583,6.20647 -4.451033,14.2104 0.223623,19.91407 1.622723,2.52236 4.705099,3.47969 6.697392,5.27247"
       style="opacity:0.570532;fill:none;stroke:#b7c900;stroke-width:0.665;stroke-linecap:butt;stroke-linejoin:miter;stroke-miterlimit:4;stroke-dasharray:none;stroke-opacity:1;filter:url(#filter1082)" />
    <path
       id="path952"
       d="m 89.733069,34.654095 c -3.987956,2.758177 1.725137,7.596633 2.950294,10.763735 1.944093,5.014162 6.23271,8.484032 8.270877,13.520681 2.84325,6.578878 4.12774,13.794873 4.10963,20.926635 0.7264,4.116868 0.0327,8.303934 0.90934,12.407862 0.4742,8.074002 0.95473,16.633992 -2.34196,24.188662 -1.53448,4.10839 -2.70537,7.91311 -4.792381,10.37837 -1.522897,3.17767 -3.506212,6.37629 -4.602642,7.62853 -2.953648,3.69845 -5.103244,8.19328 -8.547205,11.5494 -1.582123,3.99972 -6.142124,4.46189 -8.616804,7.77311 -1.066179,0.73162 -1.790984,0.6335 -3.794431,0.1341"
       style="opacity:0.570532;fill:none;stroke:#b7c900;stroke-width:0.665;stroke-linecap:butt;stroke-linejoin:miter;stroke-miterlimit:4;stroke-dasharray:none;stroke-opacity:1;filter:url(#filter1086)" />
    <path
       id="path954"
       d="m 82.493754,33.489569 c 4.57223,3.990769 2.33393,10.547267 -1.855475,13.827031 -4.106333,4.173762 -3.494263,10.480615 -5.237248,15.744666 -1.019957,6.323984 -0.342528,12.892106 0.599385,19.204203 1.72076,6.033441 0.453376,12.344293 1.036075,18.490251 0.09748,6.34333 0.774769,12.85715 -0.669415,19.10493 -1.163243,4.31935 -3.227209,8.23602 -5.387013,12.09526 -2.906008,5.34178 -1.862842,11.7155 -1.688372,17.52601 0.412935,1.2758 2.840649,3.80697 3.986096,4.44326"
       style="opacity:0.570532;fill:none;stroke:#b7c900;stroke-width:0.665;stroke-linecap:butt;stroke-linejoin:miter;stroke-miterlimit:4;stroke-dasharray:none;stroke-opacity:1;filter:url(#filter1090)" />
    <path
       id="path958"
       d="m 89.733069,34.654095 c -4.947732,1.702978 -1.670804,8.350795 -1.555948,12.270535 0.02196,4.537994 2.273223,8.587965 3.30682,12.916427 1.602285,3.19095 1.645989,6.82666 3.368225,9.983113 1.329826,5.017696 0.933297,10.23101 1.655706,15.317695 -0.213021,5.158536 0.538905,10.378265 -0.764699,15.449155 -0.708257,4.30922 -1.026587,9.01065 -3.59174,12.72392 -1.835615,3.92154 -3.18565,7.9714 -5.642734,11.56198 -1.695666,3.76205 -3.543844,7.3396 -5.946102,10.63865 -2.255243,4.3282 -4.016933,8.90473 -6.505969,13.12752 -0.310158,1.85973 -2.436227,3.4784 -0.778841,5.28209"
       style="opacity:0.570532;fill:none;stroke:#b7c900;stroke-width:0.665;stroke-linecap:butt;stroke-linejoin:miter;stroke-miterlimit:4;stroke-dasharray:none;stroke-opacity:1;filter:url(#filter1094)" />
    <path
       id="path960"
       d="m 82.493754,33.489569 c 5.610468,1.731986 3.147201,8.63214 4.402157,13.150343 0.477306,5.271934 -1.147388,10.353745 -2.091059,15.468469 -0.879143,4.2529 -0.980269,8.705861 -0.558892,13.061467 -0.280412,4.310892 1.085125,8.376117 2.238725,12.448666 1.193369,4.707754 0.214456,9.646972 1.077235,14.424616 -0.344046,5.20235 0.136981,10.85107 -2.409366,15.58098 -2.184751,3.73654 -4.976397,7.23224 -6.292878,11.40693 -1.999372,3.58702 -3.607803,7.70884 -5.85455,11.30431 -1.804791,3.96654 -0.981599,8.19009 -1.235316,12.36853 -0.139754,0.86139 0.661274,1.81863 1.508004,1.2213"
       style="opacity:0.570532;fill:none;stroke:#b7c900;stroke-width:0.665;stroke-linecap:butt;stroke-linejoin:miter;stroke-miterlimit:4;stroke-dasharray:none;stroke-opacity:1;filter:url(#filter1098)" />
  </g>
  <g
     transform="translate(-21.257017,-17.935329)"
     id="layer4">
    <g
       transform="rotate(-5.8324214,45.04464,72.616475)"
       id="g852">
      <ellipse
         ry="3.6371872"
         rx="1.5385388"
         cy="75.546028"
         cx="74.090347"
         id="ellipse848"
         style="fill:#000000;fill-opacity:1;stroke:none;stroke-width:1.21687;stroke-linecap:round" />
      <ellipse
         style="fill:#f0f1f6;fill-opacity:1;stroke:none;stroke-width:1;stroke-linecap:round"
         id="ellipse850"
         cx="73.745506"
         cy="73.92659"
         rx="0.60658675"
         ry="0.76843894" />
    </g>
    <g
       id="g846"
       transform="rotate(8.353959,99.509179,209.06555)">
      <ellipse
         style="fill:#000000;fill-opacity:1;stroke:none;stroke-width:1.21687;stroke-linecap:round"
         id="ellipse840"
         cx="74.090347"
         cy="75.546028"
         rx="1.5385388"
         ry="3.6371872" />
      <ellipse
         ry="0.76843894"
         rx="0.60658675"
         cy="73.92659"
         cx="73.745506"
         id="path842"
         style="fill:#f0f1f6;fill-opacity:1;stroke:none;stroke-width:1;stroke-linecap:round" />
    </g>
    <g
       transform="translate(3.368323,-2.636033)"
       id="g911">
      <path
         id="path871"
         d="m 72.632093,84.901504 c 0,0 -0.353652,15.609426 7.444631,15.710886 8.412579,0.10945 7.468979,-15.940351 7.468979,-15.940351 0,0 -2.628218,2.445168 -7.629954,2.297348 -5.001736,-0.14782 -7.283656,-2.067883 -7.283656,-2.067883 z"
         style="fill:#000000;fill-opacity:0.500756;stroke:none;stroke-width:0.264583px;stroke-linecap:butt;stroke-linejoin:miter;stroke-opacity:1" />
      <path
         id="path879"
         d="m 74.242315,94.735101 c 0,0 1.837357,-2.797768 3.592634,-2.836225 1.755278,-0.03846 2.688096,0.703075 2.688096,0.703075 0,0 1.112266,-1.620504 2.650344,-1.098058 1.538081,0.522444 3.381425,2.292689 3.381425,2.292689 0,0 -1.209215,6.785778 -5.315923,6.921768 -5.675813,0.18795 -6.996576,-5.983249 -6.996576,-5.983249 z"
         style="fill:#238b40;fill-opacity:0.500756;stroke:none;stroke-width:0.264583px;stroke-linecap:butt;stroke-linejoin:miter;stroke-opacity:1" />
      <path
         d="m 87.545703,84.672037 c 0,0 0.768086,15.864103 -6.993501,15.970993 -8.712139,0.11998 -7.920109,-15.741528 -7.920109,-15.741528 m -2.326145,-1.700604 c 0,0 3.762171,3.801755 9.898319,3.758126 6.136147,-0.04363 9.307949,-4.004453 9.307949,-4.004453"
         style="fill:none;stroke:#000000;stroke-width:1;stroke-linecap:round;stroke-linejoin:round;stroke-miterlimit:4;stroke-dasharray:none;stroke-opacity:1"
         id="path875" />
      <path
         id="path881"
         d="m 80.523045,92.601951 c 0,0 1.354836,1.337101 1.821759,2.71926 0.466923,1.38216 0.91485,4.250547 0.91485,4.250547"
         style="fill:none;stroke:#000000;stroke-width:0.2;stroke-linecap:butt;stroke-linejoin:miter;stroke-miterlimit:4;stroke-dasharray:none;stroke-opacity:0.374176;filter:url(#filter903)" />
    </g>
  </g>
</svg>
