<svg xmlns="http://www.w3.org/2000/svg" xmlns:xlink="http://www.w3.org/1999/xlink" viewBox="0 0 300 300"><defs><style>.cls-1{fill:none;}.cls-2{fill:#5e656a;}.cls-3{clip-path:url(#clip-path);}</style><clipPath id="clip-path"><polygon id="SVGID" class="cls-1" points="284.27 130.88 127.33 22.07 -29.61 130.88 147.19 -29.14 284.11 1.83 284.27 130.88"/></clipPath></defs><title>icon</title><g id="Layer_1" data-name="Layer 1"><g id="layer1"><g id="g1143"><g id="g1145"><path id="path1149" class="cls-2" d="M145.85,30.21,14.53,123.6c-6,4.3-7.75,13.13-3.84,19.75s12,8.51,18,4.22h0L152.94,59.2l124.24,88.37c6,4.3,14.1,2.41,18-4.2h0c3.91-6.61,2.19-15.45-3.84-19.74L160,30.21a12.05,12.05,0,0,0-14.17,0Z"/></g><g class="cls-3"><rect id="rect1125" class="cls-2" x="210.77" y="45.72" width="46.83" height="68.18"/></g><g id="g1207"><g id="g1205"><path id="rect823" class="cls-2" d="M152.8,71.69l-112.54,78V278.1h83.56V197h59.63v81.1h82.17V149.91Z"/></g></g></g></g></g></svg>