<svg xmlns="http://www.w3.org/2000/svg" viewBox="0 0 300 300"><defs><style>.cls-1{fill:#5e656a;}</style></defs><title>icon</title><g id="Layer_1" data-name="Layer 1"><path class="cls-1" d="M148.26,27.17A125.48,125.48,0,0,0,151,278.1c69.15,0,125.47-56.18,125.52-125.33A125.47,125.47,0,0,0,148.26,27.17ZM151,267.25A114.64,114.64,0,1,1,265.64,152.74,114.71,114.71,0,0,1,151,267.25Z"/><path class="cls-1" d="M173.12,131.89v84.28c0,.58,0,1.16,0,1.74.09,3.6,1.54,5.61,5,6.48a30.52,30.52,0,0,0,5.72.78c2.7.16,5.41.12,8.12.17a3,3,0,0,1,.49.15v10.22H111.54c-.05-.39-.11-.71-.12-1V225.4c.61,0,1.12-.09,1.64-.1,3.52-.07,7.06,0,10.57-.24,6-.45,8.2-2.91,8.21-8.95q0-13.92,0-27.83,0-17.33,0-34.64c0-5-1.81-7.55-6.65-8.55a59.79,59.79,0,0,0-9.2-.76c-2.11-.11-4.23,0-6.46,0v-10.1Z"/><path class="cls-1" d="M171.72,92.78a23.32,23.32,0,1,1-23.14-23.39A23.47,23.47,0,0,1,171.72,92.78Z"/></g></svg>