<svg xmlns="http://www.w3.org/2000/svg" viewBox="0 0 300 300"><defs><style>.cls-1{fill:#5e656a;}</style></defs><title>icon</title><g id="Layer_1" data-name="Layer 1"><path class="cls-1" d="M189.13,241.59a21.23,21.23,0,0,1,0-3.09c.34-2.34-.46-3.72-2.61-5Q152,213.4,117.63,193.05c-6.59-3.89-13.18-7.8-19.71-11.79-2.41-1.47-4.11-1.55-6.48.62-18.7,17.1-50,12.19-60.85-12.39-8.71-19.78-.58-42.47,20-51,15-6.25,28.68-3.42,40.82,7.16,1.66,1.45,2.8,2,5,.69,23.87-13.52,47.83-26.87,71.76-40.27,5.78-3.24,11.49-6.63,17.37-9.68,2.92-1.5,4.15-3.13,3.72-6.67-2.1-17.14,9.64-32.62,24-38.06,21.17-8,42.94,3.16,50.34,23.16s-4,41.88-22.73,48.31q-21.78,7.47-39-7.57c-1.95-1.7-3.36-1.93-5.72-.6q-44.92,25.4-90,50.56c-2,1.15-2.75,2.66-3.12,5.14-1.05,7,2.29,10.26,7.95,13.51,28.05,16.11,55.87,32.63,83.69,49.14,2.32,1.37,3.63,1.08,5.32-.63,10-10.14,22.4-13,35.75-10.3,12.21,2.45,21.25,10,26.36,21.53,7.8,17.61,2,36-12,46.42-9.25,6.9-19.67,9.36-31.17,6.75-12.62-2.87-21.65-10.14-26.83-21.86-1.86-4.2-2.48-8.95-3.66-13.45Z"/></g></svg>